<svg width="100" height="100" viewBox="0 0 100 100" fill="none" xmlns="http://www.w3.org/2000/svg">
<path fill-rule="evenodd" clip-rule="evenodd" d="M60.596 10.825C59.6373 8.82845 58.134 7.14342 56.2593 5.96404C54.3847 4.78465 52.2149 4.15891 50.0002 4.15891C47.7854 4.15891 45.6157 4.78465 43.741 5.96404C41.8663 7.14342 40.363 8.82845 39.4043 10.825L5.58764 77.3457C1.5418 85.2874 6.65431 95.8332 16.1793 95.8332H83.8168C93.346 95.8332 98.4502 85.2916 94.4127 77.3457L60.596 10.825ZM50.0002 33.3333C51.1052 33.3333 52.165 33.7723 52.9464 34.5537C53.7278 35.3351 54.1668 36.3949 54.1668 37.4999V58.3333C54.1668 59.4383 53.7278 60.4981 52.9464 61.2795C52.165 62.0609 51.1052 62.4999 50.0002 62.4999C48.8951 62.4999 47.8353 62.0609 47.0539 61.2795C46.2725 60.4981 45.8335 59.4383 45.8335 58.3333V37.4999C45.8335 36.3949 46.2725 35.3351 47.0539 34.5537C47.8353 33.7723 48.8951 33.3333 50.0002 33.3333V33.3333ZM50.0002 68.7499C51.1052 68.7499 52.165 69.1889 52.9464 69.9703C53.7278 70.7517 54.1668 71.8115 54.1668 72.9166V74.9999C54.1668 76.105 53.7278 77.1648 52.9464 77.9462C52.165 78.7276 51.1052 79.1666 50.0002 79.1666C48.8951 79.1666 47.8353 78.7276 47.0539 77.9462C46.2725 77.1648 45.8335 76.105 45.8335 74.9999V72.9166C45.8335 71.8115 46.2725 70.7517 47.0539 69.9703C47.8353 69.1889 48.8951 68.7499 50.0002 68.7499V68.7499Z" fill="#F24E1E"/>
</svg>
