<svg width="100" height="100" viewBox="0 0 100 100" fill="none" xmlns="http://www.w3.org/2000/svg">
<path fill-rule="evenodd" clip-rule="evenodd" d="M49.83 0C22.3103 0 0 22.3103 0 49.83C0 77.3498 22.3103 99.66 49.83 99.66C77.3498 99.66 99.66 77.3498 99.66 49.83C99.66 22.3103 77.3498 0 49.83 0ZM71.429 41.4042C71.8268 40.9496 72.1295 40.42 72.3196 39.8466C72.5096 39.2733 72.5831 38.6677 72.5356 38.0655C72.4881 37.4634 72.3207 36.8768 72.0432 36.3402C71.7657 35.8037 71.3837 35.3281 70.9196 34.9414C70.4556 34.5547 69.9189 34.2648 69.3412 34.0885C68.7634 33.9123 68.1562 33.8534 67.5554 33.9153C66.9545 33.9772 66.3721 34.1587 65.8424 34.449C65.3127 34.7393 64.8464 35.1326 64.471 35.6058L44.992 58.9761L34.9127 48.8923C34.0583 48.0671 32.9141 47.6105 31.7263 47.6208C30.5386 47.6312 29.4024 48.1076 28.5625 48.9475C27.7226 49.7874 27.2462 50.9236 27.2358 52.1113C27.2255 53.2991 27.6821 54.4433 28.5073 55.2977L42.0973 68.8877C42.5424 69.3326 43.0753 69.6798 43.662 69.9072C44.2488 70.1347 44.8764 70.2374 45.5051 70.2089C46.1337 70.1803 46.7495 70.0211 47.3132 69.7414C47.8769 69.4617 48.3761 69.0676 48.779 68.5842L71.429 41.4042Z" fill="#003CD5"/>
</svg>
