<svg width="44" height="44" viewBox="0 0 44 44" fill="none" xmlns="http://www.w3.org/2000/svg">
<path d="M9.625 13.6785V38.5H34.375V13.6785L23.7408 4.9775C23.2495 4.57585 22.6345 4.35642 22 4.35642C21.3655 4.35642 20.7505 4.57585 20.2593 4.9775L9.625 13.6785ZM25.4815 2.849L36.619 11.9625C36.7769 12.0913 36.9043 12.2536 36.9918 12.4377C37.0793 12.6217 37.1248 12.823 37.125 13.0268V39.875C37.125 40.2397 36.9801 40.5894 36.7223 40.8473C36.4644 41.1052 36.1147 41.25 35.75 41.25H8.25C7.88533 41.25 7.53559 41.1052 7.27773 40.8473C7.01987 40.5894 6.875 40.2397 6.875 39.875V13.0268C6.87486 12.8232 6.91994 12.6221 7.00697 12.438C7.094 12.254 7.22081 12.0916 7.37825 11.9625L18.5157 2.849C19.4984 2.04499 20.729 1.60571 21.9986 1.60571C23.2683 1.60571 24.4988 2.04499 25.4815 2.849V2.849Z" fill="white"/>
<path d="M22 19.25C22.7293 19.25 23.4288 18.9603 23.9445 18.4445C24.4603 17.9288 24.75 17.2293 24.75 16.5C24.75 15.7707 24.4603 15.0712 23.9445 14.5555C23.4288 14.0397 22.7293 13.75 22 13.75C21.2707 13.75 20.5712 14.0397 20.0555 14.5555C19.5397 15.0712 19.25 15.7707 19.25 16.5C19.25 17.2293 19.5397 17.9288 20.0555 18.4445C20.5712 18.9603 21.2707 19.25 22 19.25ZM22 22C20.5413 22 19.1424 21.4205 18.1109 20.3891C17.0795 19.3576 16.5 17.9587 16.5 16.5C16.5 15.0413 17.0795 13.6424 18.1109 12.6109C19.1424 11.5795 20.5413 11 22 11C23.4587 11 24.8576 11.5795 25.8891 12.6109C26.9205 13.6424 27.5 15.0413 27.5 16.5C27.5 17.9587 26.9205 19.3576 25.8891 20.3891C24.8576 21.4205 23.4587 22 22 22Z" fill="white"/>
</svg>
